HIERARCHY
ROOT Hips
{
 OFFSET 0.000000 0.000000 0.000000
 CHANNELS 6 Xposition Yposition Zposition Yrotation Xrotation Zrotation
 JOINT Chest
 {
  OFFSET 0.000000 9.585900 0.002600
  CHANNELS 3 Yrotation Xrotation Zrotation
  JOINT Chest2
  {
   OFFSET 0.000000 9.601200 -0.005300
   CHANNELS 3 Yrotation Xrotation Zrotation
   JOINT Chest3
   {
    OFFSET 0.000000 9.561800 0.000000
    CHANNELS 3 Yrotation Xrotation Zrotation
    JOINT Chest4
    {
     OFFSET 0.000000 9.552100 0.000000
     CHANNELS 3 Yrotation Xrotation Zrotation
     JOINT Neck
     {
      OFFSET 0.000000 14.453000 0.000000
      CHANNELS 3 Yrotation Xrotation Zrotation
      JOINT Head
      {
       OFFSET 0.000000 8.936500 -0.011300
       CHANNELS 3 Yrotation Xrotation Zrotation
       End Site
       {
        OFFSET 0.000000 17.073600 -0.006000
       }
      }
     }
     JOINT RightCollar
     {
      OFFSET -2.921100 9.558500 0.000000
      CHANNELS 3 Yrotation Xrotation Zrotation
      JOINT RightShoulder
      {
       OFFSET -13.519700 0.000000 0.000000
       CHANNELS 3 Yrotation Xrotation Zrotation
       JOINT RightElbow
       {
        OFFSET 0.000000 -29.696600 0.000000
        CHANNELS 3 Yrotation Xrotation Zrotation
        JOINT RightWrist
        {
         OFFSET 0.000000 -24.004700 0.000000
         CHANNELS 3 Yrotation Xrotation Zrotation
         End Site
         {
          OFFSET 0.000000 -17.728500 0.000000
         }
        }
       }
      }
     }
     JOINT LeftCollar
     {
      OFFSET 2.921100 9.558500 0.000000
      CHANNELS 3 Yrotation Xrotation Zrotation
      JOINT LeftShoulder
      {
       OFFSET 13.519700 0.000000 0.000000
       CHANNELS 3 Yrotation Xrotation Zrotation
       JOINT LeftElbow
       {
        OFFSET 0.000000 -29.696600 0.000000
        CHANNELS 3 Yrotation Xrotation Zrotation
        JOINT LeftWrist
        {
         OFFSET 0.000000 -24.004700 0.000000
         CHANNELS 3 Yrotation Xrotation Zrotation
         End Site
         {
          OFFSET 0.000000 -17.728500 0.000000
         }
        }
       }
      }
     }
    }
   }
  }
 }
 JOINT RightHip
 {
  OFFSET -7.771700 -0.012900 -0.001300
  CHANNELS 3 Yrotation Xrotation Zrotation
  JOINT RightKnee
  {
   OFFSET 0.000000 -40.869800 0.001200
   CHANNELS 3 Yrotation Xrotation Zrotation
   JOINT RightAnkle
   {
    OFFSET 0.000000 -39.717900 0.002100
    CHANNELS 3 Yrotation Xrotation Zrotation
    JOINT RightToe
    {
     OFFSET 0.000000 -4.965400 11.033500
     CHANNELS 3 Yrotation Xrotation Zrotation
     End Site
     {
      OFFSET 0.000000 -1.423100 5.872300
     }
    }
   }
  }
 }
 JOINT LeftHip
 {
  OFFSET 7.771700 -0.012900 -0.001300
  CHANNELS 3 Yrotation Xrotation Zrotation
  JOINT LeftKnee
  {
   OFFSET 0.000000 -40.869800 0.001200
   CHANNELS 3 Yrotation Xrotation Zrotation
   JOINT LeftAnkle
   {
    OFFSET 0.000000 -39.717900 0.002100
    CHANNELS 3 Yrotation Xrotation Zrotation
    JOINT LeftToe
    {
     OFFSET 0.000000 -4.965400 11.033500
     CHANNELS 3 Yrotation Xrotation Zrotation
     End Site
     {
      OFFSET 0.000000 -1.423100 5.872300
     }
    }
   }
  }
 }
}
MOTION
Frames: 11
Frame Time: 0.008333
0.000000 85.388000 0.000000 0.000000 -5.767877 0.000000 0.000000 11.653817 0.000000 0.000000 -5.885947 0.000000 0.000000 -0.000000 0.000000 0.000000 -0.000000 0.000000 0.000000 12.528835 0.000000 0.000000 0.711642 0.000000 0.000000 -0.000000 0.000000 0.000000 0.000000 -90.000000 0.000000 -2.309062 0.000000 0.000000 2.309062 0.000000 0.000000 -0.000000 0.000000 0.000000 -0.000000 90.000000 0.000000 -2.309062 0.000000 0.000000 2.309062 0.000000 0.000000 8.520406 0.000000 0.000000 1.905762 0.000000 -0.000000 -4.658285 0.000000 0.000000 -0.000000 0.000000 0.000000 8.520406 0.000000 0.000000 1.905762 0.000000 -0.000000 -4.658285 0.000000 0.000000 -0.000000 0.000000
-101.064118 56.892402 -1.169388 158.141120 -14.458957 0.933397 2.632573 7.731119 0.388995 0.117207 0.366266 -0.013518 0.189464 0.639768 -0.030119 2.179213 7.212298 -0.197330 1.490973 18.864298 -0.800827 2.970564 -0.699204 -1.786322 -0.384467 7.758258 1.987500 -1.475406 -3.660157 -10.531201 15.776143 -83.188701 16.965594 -3.374500 1.915450 -31.723904 -3.352089 8.878185 -2.455739 12.823225 -3.519792 -0.184434 -67.034390 -75.506882 47.400799 -9.142150 13.241077 2.192201 1.119290 -58.901714 2.425778 -35.901043 70.514936 -40.088428 -6.152631 -2.839558 2.485795 0.606238 0.594640 0.267100 5.140879 -60.847435 14.143431 44.954911 61.389194 38.216441 -16.451564 -9.549531 4.409951 -0.963745 -0.910228 -0.415424
-101.060981 56.892854 -1.173406 158.152711 -14.396315 0.942928 2.616703 7.671027 0.369532 0.113987 0.363553 -0.012614 0.193884 0.638418 -0.028294 2.151990 7.166458 -0.214279 1.527176 18.923118 -0.730564 3.017659 -0.593798 -1.673630 -0.443785 7.741751 1.954874 -1.501047 -3.639472 -10.496030 15.515609 -83.205939 17.225983 -3.356912 1.928601 -31.627684 -3.336658 8.923219 -2.443339 12.961537 -3.364050 -0.218669 -66.717253 -75.513619 47.141877 -9.046845 13.267136 2.477152 1.129587 -58.960808 2.407968 -35.919272 70.514372 -40.106813 -6.140573 -2.857675 2.487382 0.602621 0.591496 0.265451 5.114458 -60.901805 14.136222 44.983622 61.386846 38.236636 -16.468428 -9.556263 4.396649 -0.941956 -0.917473 -0.411084
-101.049532 56.895969 -1.185944 158.154789 -14.382923 0.932968 2.613574 7.658329 0.373828 0.107455 0.356662 -0.017442 0.195381 0.635566 -0.024228 2.131396 7.123590 -0.228666 1.568170 18.993226 -0.609616 3.062361 -0.492514 -1.608527 -0.480705 7.743503 1.940180 -1.551519 -3.640244 -10.473834 15.410272 -83.210278 17.380475 -3.329668 1.921473 -31.578015 -3.320153 8.972391 -2.428058 13.100226 -3.205731 -0.243278 -66.184231 -75.570381 46.632248 -8.928008 13.274260 2.767267 1.105917 -58.969400 2.437260 -35.965464 70.526214 -40.151823 -6.108517 -2.888756 2.485685 0.572298 0.590861 0.264490 5.048617 -60.908404 14.182955 44.998581 61.396220 38.277619 -16.496242 -9.576046 4.336867 -0.883410 -0.916719 -0.384066
-101.041381 56.897848 -1.194709 158.187367 -14.325331 0.930287 2.581070 7.601194 0.363404 0.106567 0.354359 -0.017670 0.188778 0.624193 -0.027594 2.109714 7.085506 -0.241281 1.607295 19.053118 -0.541642 3.111305 -0.382411 -1.494866 -0.507108 7.753778 1.932476 -1.613576 -3.653653 -10.457790 15.397602 -83.191782 17.495547 -3.282530 1.887404 -31.593617 -3.309085 9.015748 -2.408541 13.246932 -3.039584 -0.260935 -65.484399 -75.668900 45.925405 -8.793387 13.262560 3.050704 1.075244 -59.022866 2.435935 -35.994744 70.544765 -40.176067 -6.091429 -2.927997 2.482538 0.555076 0.597419 0.259221 4.994334 -60.957345 14.187688 45.018501 61.390707 38.302727 -16.520168 -9.574002 4.297511 -0.872062 -0.933500 -0.368336
-101.033844 56.900142 -1.205624 158.225777 -14.266401 0.938728 2.542473 7.544241 0.340461 0.105534 0.352050 -0.017932 0.184623 0.615587 -0.030853 2.082682 7.046864 -0.251242 1.646771 19.112191 -0.476907 3.161976 -0.273711 -1.387113 -0.503231 7.781162 1.933184 -1.703633 -3.691637 -10.446364 15.491200 -83.287497 17.359057 -3.257052 1.971644 -31.491134 -3.301582 9.036349 -2.389302 13.401508 -2.854936 -0.265026 -64.650516 -75.798709 45.055082 -8.650367 13.233563 3.317503 1.051651 -59.077334 2.413379 -36.016908 70.568270 -40.198658 -6.068051 -2.969863 2.487593 0.529798 0.606010 0.248661 4.956838 -61.000892 14.170417 45.034534 61.380591 38.308341 -16.530345 -9.563578 4.268169 -0.857314 -0.950876 -0.352395
-101.024821 56.902680 -1.217304 158.259215 -14.205593 0.945590 2.499660 7.493029 0.313015 0.101990 0.343349 -0.018369 0.180419 0.602069 -0.030579 2.068469 7.012995 -0.256916 1.685846 19.170261 -0.415775 3.213206 -0.166770 -1.285787 -0.501063 7.806848 1.932448 -1.789792 -3.733774 -10.430125 15.690189 -83.354336 17.159038 -3.227723 2.034969 -31.448850 -3.275806 9.071703 -2.373489 13.539399 -2.688033 -0.251410 -63.711800 -75.952844 44.052221 -8.502582 13.190301 3.561668 1.018219 -59.132832 2.401018 -36.041155 70.589279 -40.223752 -6.036895 -3.010449 2.493874 0.502057 0.612882 0.233693 4.913936 -61.047952 14.164952 45.055994 61.371836 38.316070 -16.527748 -9.538208 4.235803 -0.875459 -0.978781 -0.340479
-101.011016 56.906801 -1.234297 158.291394 -14.178697 0.941149 2.464880 7.469917 0.303978 0.102465 0.339839 -0.017070 0.172019 0.594715 -0.036064 2.050203 6.972680 -0.265408 1.723971 19.226527 -0.357842 3.263871 -0.063049 -1.190282 -0.566336 7.785722 1.910057 -1.810858 -3.729516 -10.392735 15.871816 -83.399854 16.997278 -3.187972 2.096421 -31.448490 -3.245930 9.115318 -2.360172 13.673858 -2.531458 -0.217542 -62.706623 -76.124306 42.957888 -8.354290 13.139922 3.780575 0.957761 -59.153357 2.413315 -36.099620 70.616298 -40.273603 -5.997923 -3.065845 2.491708 0.466670 0.616794 0.217423 4.813904 -61.055519 14.223051 45.104482 61.365059 38.341356 -16.548356 -9.528179 4.191781 -0.827736 -0.981335 -0.323458
-100.995636 56.909442 -1.244888 158.276802 -14.112260 0.927858 2.480599 7.404371 0.316502 0.100316 0.338931 -0.018571 0.170681 0.592136 -0.037252 2.027606 6.929132 -0.281389 1.760434 19.279146 -0.303705 3.312730 0.033949 -1.101307 -0.604773 7.778854 1.906269 -1.857162 -3.741237 -10.359070 16.044196 -83.443265 16.841089 -3.142601 2.175727 -31.465285 -3.222145 9.144374 -2.330526 13.812052 -2.359133 -0.179467 -61.660495 -76.307346 41.801108 -8.210638 13.085729 3.973581 0.904289 -59.211369 2.467313 -36.080939 70.627910 -40.259731 -5.936639 -3.086506 2.504372 0.410478 0.615970 0.191319 4.797789 -61.119310 14.252663 45.153567 61.347176 38.426404 -16.618010 -9.515597 4.125436 -0.767524 -0.996252 -0.297751
-100.982406 56.912258 -1.257019 158.284815 -14.045987 0.926470 2.468362 7.348706 0.303320 0.098707 0.334326 -0.018976 0.172748 0.585280 -0.032897 2.008062 6.886776 -0.295389 1.794887 19.326889 -0.255542 3.359816 0.121961 -1.022645 -0.632569 7.780870 1.908728 -1.911457 -3.760487 -10.324043 16.222109 -83.485272 16.674258 -3.094552 2.266438 -31.491282 -3.196638 9.146750 -2.283000 13.940439 -2.159787 -0.137747 -60.578880 -76.498368 40.591833 -8.070249 13.023783 4.141080 0.850713 -59.270777 2.489031 -36.079624 70.649134 -40.254123 -5.893940 -3.122593 2.501725 0.375799 0.619481 0.172217 4.748495 -61.171546 14.291778 45.193194 61.336441 38.457301 -16.657262 -9.486162 4.064642 -0.741152 -1.008306 -0.271367
-100.960847 56.917714 -1.277459 158.333285 -14.043943 0.888842 2.418500 7.354643 0.320044 0.089675 0.336725 -0.024830 0.178508 0.570968 -0.027977 2.006973 6.867693 -0.294641 1.813845 19.349882 -0.220520 3.405961 0.200216 -0.957541 -0.673011 7.763056 1.905378 -1.960626 -3.776269 -10.284441 16.414491 -83.527123 16.482524 -3.049261 2.360219 -31.518716 -3.185123 9.142525 -2.261444 14.056539 -1.981812 -0.067698 -59.483282 -76.693579 39.358195 -7.930053 12.951950 4.281622 0.705771 -59.267848 2.562421 -36.164454 70.690757 -40.300966 -5.873420 -3.186435 2.457229 0.386948 0.617179 0.171908 4.552007 -61.151369 14.450617 45.241880 61.330792 38.465235 -16.686205 -9.470060 4.006985 -0.700085 -1.000658 -0.245141
